<mxfile host="app.diagrams.net" modified="2023-02-18T08:53:25.908Z" agent="5.0 (Windows)" etag="bo5fZmSQwIY97gFsQL3e" version="20.8.20" type="github">
  <diagram name="第 1 页" id="NjEvBXp5E_1UrPg33DvR">
    <mxGraphModel dx="1434" dy="754" grid="1" gridSize="10" guides="1" tooltips="1" connect="1" arrows="1" fold="1" page="1" pageScale="1" pageWidth="827" pageHeight="1169" math="0" shadow="0">
      <root>
        <mxCell id="0" />
        <mxCell id="1" parent="0" />
        <mxCell id="pJYM-9H2oUsMn5g-GrAx-3" style="edgeStyle=none;rounded=0;orthogonalLoop=1;jettySize=auto;html=1;exitX=0.5;exitY=1;exitDx=0;exitDy=0;entryX=0.5;entryY=0;entryDx=0;entryDy=0;" edge="1" parent="1" source="pJYM-9H2oUsMn5g-GrAx-1" target="pJYM-9H2oUsMn5g-GrAx-2">
          <mxGeometry relative="1" as="geometry" />
        </mxCell>
        <mxCell id="pJYM-9H2oUsMn5g-GrAx-1" value="&lt;div&gt;开始&lt;/div&gt;" style="rounded=0;whiteSpace=wrap;html=1;" vertex="1" parent="1">
          <mxGeometry x="70" y="100" width="90" height="40" as="geometry" />
        </mxCell>
        <mxCell id="pJYM-9H2oUsMn5g-GrAx-2" value="" style="ellipse;whiteSpace=wrap;html=1;" vertex="1" parent="1">
          <mxGeometry x="55" y="180" width="120" height="80" as="geometry" />
        </mxCell>
      </root>
    </mxGraphModel>
  </diagram>
</mxfile>
